<?xml version="1.0" encoding="iso-8859-1"?>
<!-- Generator: Adobe Illustrator 19.0.0, SVG Export Plug-In . SVG Version: 6.00 Build 0)  -->
<svg version="1.1" id="Capa_1" xmlns="http://www.w3.org/2000/svg" xmlns:xlink="http://www.w3.org/1999/xlink" x="0px" y="0px"
	 viewBox="0 0 512 512" style="enable-background:new 0 0 512 512;" xml:space="preserve">
<circle style="fill:#F2F2F2;" cx="256" cy="256" r="256"/>
<path style="fill:#76C239;" d="M295.894,3.093V94.02H57.762C104.699,36.634,176.076,0,256,0C269.573,0,282.896,1.055,295.894,3.093z
	"/>
<path style="fill:#FAC5D3;" d="M454.238,94.02H375.39V29.487C405.828,45.558,432.63,67.584,454.238,94.02z"/>
<g>
	<path style="fill:#E8E5C0;" d="M295.894,166.807v342.1C282.896,510.945,269.573,512,256,512C114.615,512,0,397.385,0,256
		c0-31.368,5.642-61.419,15.966-89.192L295.894,166.807L295.894,166.807z"/>
	<path style="fill:#E8E5C0;" d="M473.537,391.022c-23.96,38.525-57.877,70.228-98.147,91.491v-91.491H473.537z"/>
</g>
<path style="fill:#E9E6C1;" d="M512,256c0,21.462-2.644,42.297-7.617,62.224H375.39V166.807h120.644
	C506.358,194.581,512,224.632,512,256z"/>
<path style="fill:#40B6EB;" d="M353.364,112.212v240.4H316.97V148.605H23.552c0.669-1.442,1.348-2.884,2.038-4.305
	c4.671-9.613,9.916-18.881,15.705-27.773c0.94-1.452,1.902-2.894,2.873-4.315H353.364z"/>
<path style="fill:#3C78BF;" d="M353.364,107.907H47.167c-1.014,1.421-2.017,2.853-2.999,4.305c-0.972,1.421-1.933,2.863-2.873,4.315
	h307.754v231.779h-27.773V148.605c0-2.372-1.933-4.305-4.305-4.305H25.59c-0.69,1.421-1.369,2.863-2.038,4.305
	c-0.669,1.432-1.317,2.873-1.954,4.315h291.056v199.69c0,2.382,1.933,4.315,4.315,4.315h36.394c2.382,0,4.305-1.933,4.305-4.315
	v-240.4C357.669,109.829,355.746,107.907,353.364,107.907z"/>
<path style="fill:#F9E200;" d="M424.218,448.972c-2.309,2.027-4.671,4.002-7.064,5.945c-12.936,10.501-26.917,19.759-41.765,27.596
	c-24.43,12.904-51.19,21.964-79.496,26.394c-3.218,0.502-6.457,0.94-9.718,1.327c-4.65,0.554-9.341,0.972-14.064,1.264
	c-4.253-1.849-8.464-3.73-12.612-5.642c-72.788-33.52-132.18-129.296-176.232-157.069c-22.424-14.148-50.563-18.85-72.788-20.062
	c-0.679-2.278-1.317-4.566-1.923-6.865C2.968,300.847,0,278.768,0,256c0-4.942,0.136-9.864,0.418-14.743
	c0.125-2.236,0.282-4.472,0.47-6.698c76.1,8.829,141.761,50.051,141.761,50.051s49.8,29.696,104.396,100.571
	C277.734,425.023,358.964,441.866,424.218,448.972z"/>
<g>
	<path style="fill:#FDAD00;" d="M262.301,499.764c7.774,3.584,15.778,7.074,23.876,10.47c-4.65,0.554-9.341,0.972-14.064,1.264
		c-5.068,0.324-10.167,0.481-15.318,0.502c-0.031-0.021-0.073-0.031-0.104-0.052c-44.931-20.689-83.926-63.394-118.324-101.073
		c-21.514-23.552-41.827-45.798-58.671-56.424c-20.365-12.842-46.09-17.46-67.062-18.829c-0.752-2.278-1.473-4.577-2.152-6.896
		c-0.679-2.278-1.317-4.566-1.923-6.865c23.364,1.045,53.791,5.81,78.284,21.253c18.38,11.577,38.327,33.426,61.419,58.723
		C181.812,438.575,219.836,480.214,262.301,499.764z"/>
	<path style="fill:#FDAD00;" d="M430.947,442.89c-2.205,2.069-4.451,4.096-6.729,6.081c-2.309,2.027-4.671,4.002-7.064,5.945
		c-5.256-0.616-10.595-1.296-15.987-2.038c-82.035-11.368-135.68-32.778-159.431-63.613c-42.454-55.108-85.629-88.785-102.525-98.9
		l-0.125-0.073c-0.721-0.46-65.118-40.354-138.668-49.037c0.125-2.236,0.282-4.472,0.47-6.698c0.188-2.247,0.397-4.472,0.648-6.698
		c76.016,8.704,140.821,48.661,144.614,51.033c2.915,1.745,51.963,31.765,106.214,102.191
		C282.54,420.268,365.923,436.318,430.947,442.89z"/>
</g>
<path style="fill:#3C78BF;" d="M216.398,236.725c0,51.835-42.027,93.862-93.862,93.862s-93.862-42.027-93.862-93.862
	c0-3.831,0.23-8.007,0.68-12.451c1.101-10.899,3.515-23.398,7.039-36.443c11.091,6.954,24.835,11.062,39.719,11.062
	c18.054,0,34.422-6.044,46.424-15.851c12.001,9.807,28.369,15.851,46.424,15.851c14.884,0,28.628-4.109,39.719-11.062
	c3.524,13.044,5.938,25.544,7.039,36.443C216.168,228.718,216.398,232.893,216.398,236.725z"/>
<path style="fill:#E21C1E;" d="M215.718,224.274H29.355c1.101-10.899,3.515-23.398,7.039-36.443
	c11.091,6.954,24.835,11.062,39.719,11.062c18.054,0,34.422-6.044,46.424-15.851c12.001,9.807,28.369,15.851,46.424,15.851
	c14.884,0,28.628-4.109,39.719-11.062C212.203,200.875,214.617,213.374,215.718,224.274z"/>
<path style="fill:#FEFEFE;" d="M122.537,335.854c-54.661,0-99.129-44.469-99.129-99.129c0-13.569,2.807-31.421,7.903-50.269
	c0.436-1.611,1.61-2.922,3.164-3.53c1.555-0.609,3.305-0.445,4.72,0.442c10.704,6.711,23.472,10.258,36.921,10.258
	c16.217,0,31.52-5.207,43.089-14.662c1.94-1.585,4.727-1.585,6.667,0c11.57,9.455,26.873,14.662,43.09,14.662
	c13.45,0,26.216-3.546,36.92-10.258c1.414-0.886,3.165-1.05,4.72-0.442c1.554,0.609,2.728,1.918,3.164,3.53
	c5.096,18.848,7.903,36.7,7.903,50.269C221.667,291.384,177.197,335.854,122.537,335.854z M39.788,195.775
	c-3.786,15.49-5.845,29.839-5.845,40.95c0,48.851,39.743,88.594,88.594,88.594s88.594-39.743,88.594-88.594
	c0-11.11-2.059-25.46-5.845-40.95c-10.972,5.503-23.392,8.384-36.325,8.384c-17.137,0-33.454-5.115-46.424-14.478
	c-12.968,9.363-29.285,14.478-46.423,14.478C63.181,204.161,50.761,201.279,39.788,195.775z"/>
<g>
	<path style="fill:#FFFFFF;" d="M80.416,239.51c9.16,0,17.687,6.001,17.687,16.03c0,17.056-25.031,22.583-25.031,30.795v1.895
		h21.951c1.738,0,3.238,2.053,3.238,4.422s-1.5,4.58-3.238,4.58h-28.11c-1.816,0-4.5-1.263-4.5-3.238v-7.659
		c0-12.634,25.426-19.346,25.426-30.48c0-3.238-2.132-7.028-7.344-7.028c-3.869,0-7.028,2.053-7.028,6.949
		c0,1.895-1.974,3.791-5.37,3.791c-2.684,0-4.659-1.263-4.659-5.528C63.44,245.038,71.652,239.51,80.416,239.51z"/>
	<path style="fill:#FFFFFF;" d="M138.061,253.487c0,6.632-3.079,10.581-7.581,12.161c5.685,2.052,9.397,6.711,9.397,14.845v0.948
		c0,11.766-8.054,16.266-18.477,16.266s-18.556-4.5-18.556-16.266v-0.948c0-8.133,3.79-12.792,9.397-14.845
		c-4.5-1.579-7.581-5.527-7.581-12.161c0-10.029,7.028-13.977,16.74-13.977C131.033,239.51,138.061,243.459,138.061,253.487z
		 M129.612,278.676c0-6.001-3.079-8.686-8.212-8.686c-5.211,0-8.29,2.684-8.29,8.686v1.579c0,6.238,3.158,9.08,8.29,9.08
		c5.212,0,8.212-2.922,8.212-9.08V278.676z M114.61,254.75c0,4.895,2.448,6.869,6.791,6.869c4.264,0,6.791-1.974,6.791-6.869
		s-2.527-6.869-6.791-6.869C117.058,247.881,114.61,249.855,114.61,254.75z"/>
	<path style="fill:#FFFFFF;" d="M146.039,279.624v-22.031c0-13.187,8.054-18.082,18.477-18.082s18.556,4.896,18.556,18.082v22.031
		c0,13.187-8.133,18.082-18.556,18.082S146.039,292.811,146.039,279.624z M172.807,257.593c0-6.238-3.159-9.08-8.291-9.08
		c-5.211,0-8.212,2.843-8.212,9.08v22.031c0,6.238,3.001,9.08,8.212,9.08c5.133,0,8.291-2.842,8.291-9.08V257.593z"/>
</g>
<circle style="fill:#3C78BF;" cx="336.12" cy="332.5" r="57.47"/>
<polygon style="fill:#FEFEFE;" points="338.036,340.791 368.449,363.384 338.036,293 307.623,363.384 "/>
<rect x="29.14" y="221.4" style="fill:#FFFFFF;" width="186.81" height="10.533"/>
<g>
</g>
<g>
</g>
<g>
</g>
<g>
</g>
<g>
</g>
<g>
</g>
<g>
</g>
<g>
</g>
<g>
</g>
<g>
</g>
<g>
</g>
<g>
</g>
<g>
</g>
<g>
</g>
<g>
</g>
</svg>
